<svg width="144" height="32" viewBox="0 0 144 32" fill="none" xmlns="http://www.w3.org/2000/svg">
<circle cx="128" cy="16" r="15.5" fill="white" stroke="black"/>
<path d="M133.811 9.95025C133.692 9.868 133.542 9.85312 133.41 9.9065C133.383 9.91787 130.547 11.0563 128.183 9.917C126.144 8.9335 123.899 9.39375 122.857 9.70438V9.4375C122.857 9.196 122.665 9 122.429 9C122.192 9 122 9.196 122 9.4375V10.3125V17.3125V22.5625C122 22.804 122.192 23 122.429 23C122.665 23 122.857 22.804 122.857 22.5625V17.6222C123.617 17.3711 125.873 16.7709 127.817 17.708C128.744 18.1551 129.713 18.3039 130.594 18.3039C132.287 18.3039 133.648 17.7535 133.733 17.7185C133.894 17.6511 134 17.491 134 17.3125V10.3125C134 10.1673 133.929 10.0316 133.811 9.95025Z" fill="black"/>
<rect x="88" y="16" width="24" height="1" fill="black"/>
<g clip-path="url(#clip0_708_450)">
<circle cx="72" cy="16" r="15.5" fill="white" stroke="black"/>
<path d="M68.4185 13.4854V13.5073H69.9712V13.4854C69.9712 12.3574 70.7549 11.5957 71.9194 11.5957C73.0107 11.5957 73.8384 12.3208 73.8384 13.2876C73.8384 14.064 73.4941 14.6206 72.0806 16.0928L68.5063 19.8135V21H75.6255V19.5278H70.7915V19.4033L73.1426 17.0229C74.915 15.2285 75.457 14.313 75.457 13.1924C75.457 11.4492 73.9775 10.1748 71.9707 10.1748C69.8906 10.1748 68.4185 11.5371 68.4185 13.4854Z" fill="black"/>
</g>
<rect x="32" y="16" width="24" height="1" fill="black"/>
<g clip-path="url(#clip1_708_450)">
<circle cx="16" cy="16" r="16" fill="black"/>
<path d="M16.0513 21H17.6919V10.4312H16.0586L13.2754 12.394V14.0713L15.9268 12.1963H16.0513V21Z" fill="white"/>
</g>
<defs>
<clipPath id="clip0_708_450">
<rect width="32" height="32" fill="white" transform="translate(56)"/>
</clipPath>
<clipPath id="clip1_708_450">
<rect width="32" height="32" fill="white"/>
</clipPath>
</defs>
</svg>
