<svg width="144" height="32" viewBox="0 0 144 32" fill="none" xmlns="http://www.w3.org/2000/svg">
<circle cx="128" cy="16" r="15.5" fill="white" stroke="black"/>
<path d="M133.811 9.95025C133.692 9.868 133.542 9.85312 133.41 9.9065C133.383 9.91787 130.547 11.0563 128.183 9.917C126.144 8.9335 123.899 9.39375 122.857 9.70438V9.4375C122.857 9.196 122.665 9 122.429 9C122.192 9 122 9.196 122 9.4375V10.3125V17.3125V22.5625C122 22.804 122.192 23 122.429 23C122.665 23 122.857 22.804 122.857 22.5625V17.6222C123.617 17.3711 125.873 16.7709 127.817 17.708C128.744 18.1551 129.713 18.3039 130.594 18.3039C132.287 18.3039 133.648 17.7535 133.733 17.7185C133.894 17.6511 134 17.491 134 17.3125V10.3125C134 10.1673 133.929 10.0316 133.811 9.95025Z" fill="black"/>
<rect x="88" y="16" width="24" height="1" fill="black"/>
<g clip-path="url(#clip0_708_451)">
<circle cx="72" cy="16" r="16" fill="black"/>
<path d="M68.5063 21H75.6255V19.6011H70.7402V19.4546L72.9814 17.2207C74.9004 15.3164 75.457 14.3936 75.457 13.1924V13.1704C75.457 11.4272 74.0068 10.1748 72.0366 10.1748C69.9126 10.1748 68.4185 11.5371 68.4111 13.4707L68.4258 13.4854H69.9639L69.9712 13.4634C69.9712 12.3062 70.7622 11.5298 71.9487 11.5298C73.106 11.5298 73.8164 12.2915 73.8164 13.3242V13.3462C73.8164 14.2031 73.4136 14.7451 72.0146 16.2026L68.5063 19.8867V21Z" fill="white"/>
</g>
<rect x="32" y="16" width="24" height="1" fill="black"/>
<g clip-path="url(#clip1_708_451)">
<circle cx="16" cy="16" r="15.5" fill="white" stroke="black"/>
<path d="M16.0513 21H17.6919V10.4312H16.0586L13.2754 12.394V14.0713L15.9268 12.1963H16.0513V21Z" fill="black"/>
</g>
<defs>
<clipPath id="clip0_708_451">
<rect width="32" height="32" fill="white" transform="translate(56)"/>
</clipPath>
<clipPath id="clip1_708_451">
<rect width="32" height="32" fill="white"/>
</clipPath>
</defs>
</svg>
