<svg width="52" height="64" viewBox="0 0 52 64" fill="none" xmlns="http://www.w3.org/2000/svg">
<path fill-rule="evenodd" clip-rule="evenodd" d="M0 26.0808C0 11.6771 11.6409 0 26 0C40.3591 0 52 11.6771 52 26.0808C52 40.7071 39.707 48.8315 34.7735 52.092C33.9217 52.6549 33.2893 53.0729 32.9775 53.3543C30.8147 55.308 29.0278 59.6801 28.3069 62.1601C27.9571 63.3622 26.9762 63.9715 26 64C25.0262 63.9739 24.0429 63.3646 23.6931 62.1601C22.9722 59.6801 21.1853 55.3056 19.0225 53.3543C18.7107 53.0729 18.0783 52.6549 17.2264 52.092C12.293 48.8315 0 40.7071 0 26.0808ZM18.9091 26.0808C18.9091 30.0096 22.0835 33.1938 26 33.1938C29.9165 33.1938 33.0909 30.0096 33.0909 26.0808C33.0909 22.1521 29.9165 18.9679 26 18.9679C22.0835 18.9679 18.9091 22.1521 18.9091 26.0808Z" fill="black"/>
</svg>
