<svg width="256" height="32" viewBox="0 0 256 32" fill="none" xmlns="http://www.w3.org/2000/svg">
<circle cx="240" cy="16" r="16" fill="black"/>
<path d="M245.811 9.95025C245.692 9.868 245.542 9.85312 245.41 9.9065C245.383 9.91787 242.547 11.0563 240.183 9.917C238.144 8.9335 235.899 9.39375 234.857 9.70438V9.4375C234.857 9.196 234.665 9 234.429 9C234.192 9 234 9.196 234 9.4375V10.3125V17.3125V22.5625C234 22.804 234.192 23 234.429 23C234.665 23 234.857 22.804 234.857 22.5625V17.6222C235.617 17.3711 237.873 16.7709 239.817 17.708C240.744 18.1551 241.713 18.3039 242.594 18.3039C244.287 18.3039 245.648 17.7535 245.733 17.7185C245.894 17.6511 246 17.491 246 17.3125V10.3125C246 10.1673 245.929 10.0316 245.811 9.95025Z" fill="white"/>
<rect x="144" y="16" width="24" height="1" fill="black"/>
<rect x="200" y="16" width="24" height="1" fill="black"/>
<g clip-path="url(#clip0_339_454)">
<circle cx="128" cy="16" r="15.5" fill="white" stroke="black"/>
<path d="M126.63 16.2539H127.963C129.348 16.2539 130.205 16.9351 130.205 18.0264C130.205 19.0664 129.296 19.8062 128.007 19.8062C126.726 19.8062 125.847 19.1543 125.744 18.1289H124.169C124.265 20.0186 125.788 21.2563 128.007 21.2563C130.212 21.2563 131.882 19.9087 131.882 18.1143C131.882 16.7007 131.003 15.7119 129.56 15.5435V15.4189C130.725 15.1553 131.45 14.2178 131.45 12.9727C131.45 11.3833 129.941 10.1748 127.978 10.1748C125.861 10.1748 124.484 11.354 124.375 13.2656H125.935C126.022 12.2256 126.777 11.5884 127.927 11.5884C129.077 11.5884 129.831 12.2329 129.831 13.2144C129.831 14.2104 129.047 14.8989 127.912 14.8989H126.63V16.2539Z" fill="black"/>
</g>
<g clip-path="url(#clip1_339_454)">
<circle cx="184" cy="16" r="15.5" fill="white" stroke="black"/>
<path d="M185.047 21H186.629V18.8979H188.087V17.5063H186.629V10.4312H184.293C182.835 12.6211 181.283 15.1187 179.891 17.5063V18.8979H185.047V21ZM181.466 17.5356V17.4331C182.55 15.5801 183.839 13.522 184.974 11.8154H185.069V17.5356H181.466Z" fill="black"/>
</g>
<rect x="88" y="16" width="24" height="1" fill="black"/>
<g clip-path="url(#clip2_339_454)">
<circle cx="72" cy="16" r="15.5" fill="white" stroke="black"/>
<path d="M68.4185 13.4854V13.5073H69.9712V13.4854C69.9712 12.3574 70.7549 11.5957 71.9194 11.5957C73.0107 11.5957 73.8384 12.3208 73.8384 13.2876C73.8384 14.064 73.4941 14.6206 72.0806 16.0928L68.5063 19.8135V21H75.6255V19.5278H70.7915V19.4033L73.1426 17.0229C74.915 15.2285 75.457 14.313 75.457 13.1924C75.457 11.4492 73.9775 10.1748 71.9707 10.1748C69.8906 10.1748 68.4185 11.5371 68.4185 13.4854Z" fill="black"/>
</g>
<rect x="32" y="16" width="24" height="1" fill="black"/>
<g clip-path="url(#clip3_339_454)">
<circle cx="16" cy="16" r="15.5" fill="white" stroke="black"/>
<path d="M16.1172 21H17.7578V10.4312H16.1172L13.334 12.4087V14.02L15.9927 12.123H16.1172V21Z" fill="black"/>
</g>
<defs>
<clipPath id="clip0_339_454">
<rect width="32" height="32" fill="white" transform="translate(112)"/>
</clipPath>
<clipPath id="clip1_339_454">
<rect width="32" height="32" fill="white" transform="translate(168)"/>
</clipPath>
<clipPath id="clip2_339_454">
<rect width="32" height="32" fill="white" transform="translate(56)"/>
</clipPath>
<clipPath id="clip3_339_454">
<rect width="32" height="32" fill="white"/>
</clipPath>
</defs>
</svg>
