<svg width="200" height="32" viewBox="0 0 200 32" fill="none" xmlns="http://www.w3.org/2000/svg">
<circle cx="184" cy="16" r="15.5" fill="white" stroke="black"/>
<path d="M189.811 9.95025C189.692 9.868 189.542 9.85312 189.41 9.9065C189.383 9.91787 186.547 11.0563 184.183 9.917C182.144 8.9335 179.899 9.39375 178.857 9.70438V9.4375C178.857 9.196 178.665 9 178.429 9C178.192 9 178 9.196 178 9.4375V10.3125V17.3125V22.5625C178 22.804 178.192 23 178.429 23C178.665 23 178.857 22.804 178.857 22.5625V17.6222C179.617 17.3711 181.873 16.7709 183.817 17.708C184.744 18.1551 185.713 18.3039 186.594 18.3039C188.287 18.3039 189.648 17.7535 189.733 17.7185C189.894 17.6511 190 17.491 190 17.3125V10.3125C190 10.1673 189.929 10.0316 189.811 9.95025Z" fill="black"/>
<rect x="144" y="16" width="24" height="1" fill="black"/>
<g clip-path="url(#clip0_44_74)">
<circle cx="128" cy="16" r="15.5" fill="white" stroke="black"/>
<path d="M126.63 16.2539H127.963C129.348 16.2539 130.205 16.9351 130.205 18.0264C130.205 19.0664 129.296 19.8062 128.007 19.8062C126.726 19.8062 125.847 19.1543 125.744 18.1289H124.169C124.265 20.0186 125.788 21.2563 128.007 21.2563C130.212 21.2563 131.882 19.9087 131.882 18.1143C131.882 16.7007 131.003 15.7119 129.56 15.5435V15.4189C130.725 15.1553 131.45 14.2178 131.45 12.9727C131.45 11.3833 129.941 10.1748 127.978 10.1748C125.861 10.1748 124.484 11.354 124.375 13.2656H125.935C126.022 12.2256 126.777 11.5884 127.927 11.5884C129.077 11.5884 129.831 12.2329 129.831 13.2144C129.831 14.2104 129.047 14.8989 127.912 14.8989H126.63V16.2539Z" fill="black"/>
</g>
<rect x="88" y="16" width="24" height="1" fill="black"/>
<g clip-path="url(#clip1_44_74)">
<circle cx="72" cy="16" r="15.5" fill="white" stroke="black"/>
<path d="M68.4185 13.4854V13.5073H69.9712V13.4854C69.9712 12.3574 70.7549 11.5957 71.9194 11.5957C73.0107 11.5957 73.8384 12.3208 73.8384 13.2876C73.8384 14.064 73.4941 14.6206 72.0806 16.0928L68.5063 19.8135V21H75.6255V19.5278H70.7915V19.4033L73.1426 17.0229C74.915 15.2285 75.457 14.313 75.457 13.1924C75.457 11.4492 73.9775 10.1748 71.9707 10.1748C69.8906 10.1748 68.4185 11.5371 68.4185 13.4854Z" fill="black"/>
</g>
<rect x="32" y="16" width="24" height="1" fill="black"/>
<g clip-path="url(#clip2_44_74)">
<circle cx="16" cy="16" r="16" fill="black"/>
<path d="M16.0513 21H17.6919V10.4312H16.0586L13.2754 12.394V14.0713L15.9268 12.1963H16.0513V21Z" fill="white"/>
</g>
<defs>
<clipPath id="clip0_44_74">
<rect width="32" height="32" fill="white" transform="translate(112)"/>
</clipPath>
<clipPath id="clip1_44_74">
<rect width="32" height="32" fill="white" transform="translate(56)"/>
</clipPath>
<clipPath id="clip2_44_74">
<rect width="32" height="32" fill="white"/>
</clipPath>
</defs>
</svg>
