<svg width="200" height="32" viewBox="0 0 200 32" fill="none" xmlns="http://www.w3.org/2000/svg">
<circle cx="184" cy="16" r="16" fill="black"/>
<path d="M189.811 9.95025C189.692 9.868 189.542 9.85312 189.41 9.9065C189.383 9.91787 186.547 11.0563 184.183 9.917C182.144 8.9335 179.899 9.39375 178.857 9.70438V9.4375C178.857 9.196 178.665 9 178.429 9C178.192 9 178 9.196 178 9.4375V10.3125V17.3125V22.5625C178 22.804 178.192 23 178.429 23C178.665 23 178.857 22.804 178.857 22.5625V17.6222C179.617 17.3711 181.873 16.7709 183.817 17.708C184.744 18.1551 185.713 18.3039 186.594 18.3039C188.287 18.3039 189.648 17.7535 189.733 17.7185C189.894 17.6511 190 17.491 190 17.3125V10.3125C190 10.1673 189.929 10.0316 189.811 9.95025Z" fill="white"/>
<rect x="144" y="16" width="24" height="1" fill="black"/>
<g clip-path="url(#clip0_44_311)">
<circle cx="128" cy="16" r="15.5" fill="white" stroke="black"/>
<path d="M128.044 21.1978C130.285 21.1978 131.875 19.894 131.875 18.0776V18.063C131.875 16.5835 130.834 15.646 129.282 15.5068V15.4702C130.571 15.1992 131.508 14.3203 131.508 13.0093V12.9946C131.508 11.3613 130.131 10.2334 128.029 10.2334C125.964 10.2334 124.558 11.4126 124.396 13.1924L124.389 13.2729H125.927L125.935 13.1997C126.037 12.2036 126.857 11.5811 128.029 11.5811C129.223 11.5811 129.912 12.1816 129.912 13.207V13.2217C129.912 14.2031 129.091 14.9136 127.883 14.9136H126.645V16.188H127.934C129.34 16.188 130.205 16.8545 130.205 18.0483V18.063C130.205 19.103 129.333 19.8281 128.044 19.8281C126.733 19.8281 125.847 19.1543 125.744 18.1948L125.737 18.1216H124.169L124.177 18.2095C124.316 19.96 125.788 21.1978 128.044 21.1978Z" fill="black"/>
</g>
<rect x="88" y="16" width="24" height="1" fill="black"/>
<g clip-path="url(#clip1_44_311)">
<circle cx="72" cy="16" r="15.5" fill="white" stroke="black"/>
<path d="M68.5063 21H75.6255V19.6011H70.7402V19.4546L72.9814 17.2207C74.9004 15.3164 75.457 14.3936 75.457 13.1924V13.1704C75.457 11.4272 74.0068 10.1748 72.0366 10.1748C69.9126 10.1748 68.4185 11.5371 68.4111 13.4707L68.4258 13.4854H69.9639L69.9712 13.4634C69.9712 12.3062 70.7622 11.5298 71.9487 11.5298C73.106 11.5298 73.8164 12.2915 73.8164 13.3242V13.3462C73.8164 14.2031 73.4136 14.7451 72.0146 16.2026L68.5063 19.8867V21Z" fill="black"/>
</g>
<rect x="32" y="16" width="24" height="1" fill="black"/>
<g clip-path="url(#clip2_44_311)">
<circle cx="16" cy="16" r="15.5" fill="white" stroke="black"/>
<path d="M16.1172 21H17.7578V10.4312H16.1172L13.334 12.4087V14.02L15.9927 12.123H16.1172V21Z" fill="black"/>
</g>
<defs>
<clipPath id="clip0_44_311">
<rect width="32" height="32" fill="white" transform="translate(112)"/>
</clipPath>
<clipPath id="clip1_44_311">
<rect width="32" height="32" fill="white" transform="translate(56)"/>
</clipPath>
<clipPath id="clip2_44_311">
<rect width="32" height="32" fill="white"/>
</clipPath>
</defs>
</svg>
